<?xml version="1.0" encoding="UTF-8"?>
<!DOCTYPE svg PUBLIC "-//W3C//DTD SVG 1.1//EN" "http://www.w3.org/Graphics/SVG/1.1/DTD/svg11.dtd">
<!-- Creator: CorelDRAW X7 -->
<svg xmlns="http://www.w3.org/2000/svg" xml:space="preserve" width="58.6054mm" height="44.0549mm" version="1.1" style="shape-rendering:geometricPrecision; text-rendering:geometricPrecision; image-rendering:optimizeQuality; fill-rule:evenodd; clip-rule:evenodd"
viewBox="0 0 6275 4717"
 xmlns:xlink="http://www.w3.org/1999/xlink">
 <defs>
  <style type="text/css">
   <![CDATA[
    .str0 {stroke:black;stroke-width:80.2978;stroke-linecap:round;stroke-linejoin:round}
    .str1 {stroke:black;stroke-width:80.2978;stroke-linecap:round;stroke-linejoin:round}
    .fil0 {fill:none;fill-rule:nonzero}
   ]]>
  </style>
 </defs>
 <g id="Слой_x0020_1">
  <metadata id="CorelCorpID_0Corel-Layer"/>
  <g id="_1386525833200">
   <g>
    <g>
     <path class="fil0 str0" d="M6234 404l-756 477m-4119 2600l-1319 832"/>
     <path class="fil0 str0" d="M5696 40l-1410 890m-2507 1582l-1739 1098"/>
     <path class="fil0 str0" d="M6234 1811l-1420 896m-2652 1674l-469 296"/>
     <path class="fil0 str0" d="M6234 1107l-1135 717m-3484 2199l-1036 654"/>
     <path class="fil0 str0" d="M4581 40l-811 512m-2457 1551l-1273 803"/>
    </g>
    <g>
     <path class="fil0 str1" d="M2010 2534c-63,-387 -723,-525 -736,-916 -24,-708 1181,-1201 1888,-1058 518,105 997,431 1263,903 -341,370 -627,770 -843,1208 142,107 284,214 425,321 256,-239 461,-499 632,-773 18,404 -100,860 -410,1344 -389,608 -1337,862 -2087,585 -292,-108 -550,-426 -576,-736 -26,-327 497,-555 444,-878z"/>
     <circle class="fil0 str1" cx="2029" cy="1674" r="297"/>
     <circle class="fil0 str1" cx="2855" cy="1264" r="264"/>
     <circle class="fil0 str1" cx="3615" cy="1646" r="241"/>
     <circle class="fil0 str1" cx="2397" cy="3365" r="316"/>
     <path class="fil0 str1" d="M2865 3728c484,-201 72,-1035 717,-1057 142,107 284,214 425,321 63,434 -469,906 -1142,736z"/>
     <path class="fil0 str1" d="M3582 2671c389,-787 1001,-1452 1757,-2040 -291,850 -612,1687 -1332,2361 -141,-107 -283,-214 -425,-321z"/>
     <line class="fil0 str1" x1="3834" y1="2225" x2="4338" y2= "2640" />
     <path class="fil0 str1" d="M4997 1097c-138,129 -608,698 -907,1112m-180 265c-39,64 -65,115 -74,147"/>
    </g>
   </g>
   <g>
    <circle class="fil0 str0" cx="5171" cy="3878" r="175"/>
    <polygon class="fil0 str0" points="5924,2874 6190,3139 5924,3404 "/>
    <circle class="fil0 str0" cx="305" cy="1853" r="264"/>
    <circle class="fil0 str0" cx="1705" cy="271" r="175"/>
    <polygon class="fil0 str0" points="684,463 419,728 684,993 "/>
   </g>
   <g>
    <g>
     <path class="fil0 str0" d="M6234 404l-756 477m-4119 2600l-1319 832"/>
     <path class="fil0 str0" d="M5696 40l-1410 890m-2507 1582l-1739 1098"/>
     <path class="fil0 str0" d="M6234 1811l-1420 896m-2652 1674l-469 296"/>
     <path class="fil0 str0" d="M6234 1107l-1135 717m-3484 2199l-1036 654"/>
     <path class="fil0 str0" d="M4581 40l-811 512m-2457 1551l-1273 803"/>
    </g>
    <g>
     <path class="fil0 str1" d="M2010 2534c-63,-387 -723,-525 -736,-916 -24,-708 1181,-1201 1888,-1058 518,105 997,431 1263,903 -341,370 -627,770 -843,1208 142,107 284,214 425,321 256,-239 461,-499 632,-773 18,404 -100,860 -410,1344 -389,608 -1337,862 -2087,585 -292,-108 -550,-426 -576,-736 -26,-327 497,-555 444,-878z"/>
     <circle class="fil0 str1" cx="2029" cy="1674" r="297"/>
     <circle class="fil0 str1" cx="2855" cy="1264" r="264"/>
     <circle class="fil0 str1" cx="3615" cy="1646" r="241"/>
     <circle class="fil0 str1" cx="2397" cy="3365" r="316"/>
     <path class="fil0 str1" d="M2865 3728c484,-201 72,-1035 717,-1057 142,107 284,214 425,321 63,434 -469,906 -1142,736z"/>
     <path class="fil0 str1" d="M3582 2671c389,-787 1001,-1452 1757,-2040 -291,850 -612,1687 -1332,2361 -141,-107 -283,-214 -425,-321z"/>
     <line class="fil0 str1" x1="3834" y1="2225" x2="4338" y2= "2640" />
     <path class="fil0 str1" d="M4997 1097c-138,129 -608,698 -907,1112m-180 265c-39,64 -65,115 -74,147"/>
    </g>
   </g>
  </g>
 </g>
</svg>
