<?xml version="1.0" encoding="UTF-8"?>
<!DOCTYPE svg PUBLIC "-//W3C//DTD SVG 1.1//EN" "http://www.w3.org/Graphics/SVG/1.1/DTD/svg11.dtd">
<!-- Creator: CorelDRAW X7 -->
<svg xmlns="http://www.w3.org/2000/svg" xml:space="preserve" width="26mm" height="34mm" version="1.1" style="shape-rendering:geometricPrecision; text-rendering:geometricPrecision; image-rendering:optimizeQuality; fill-rule:evenodd; clip-rule:evenodd"
viewBox="0 0 2600 3400"
 xmlns:xlink="http://www.w3.org/1999/xlink">
 <defs>
  <style type="text/css">
   <![CDATA[
    .fil0 {fill:#00B7FF}
   ]]>
  </style>
 </defs>
 <g id="Слой_x0020_1">
  <metadata id="CorelCorpID_0Corel-Layer"/>
  <g id="_1386523603232">
   <path class="fil0" d="M1725 736c0,-70 -6,-444 3,-482 22,6 130,121 154,145l374 374c26,26 55,48 72,81 -17,0 -19,3 -38,3l-433 0c-37,0 -69,-18 -88,-37 -21,-20 -44,-51 -44,-84zm-125 -426l0 395c0,101 41,173 107,222 38,29 92,52 146,52l454 0c28,0 65,-11 84,-21 4,20 18,49 28,93 7,29 10,74 10,112l0 1917c0,69 -21,121 -75,150 -14,8 -41,16 -61,16l-1990 0c-38,0 -73,-22 -93,-42 -20,-21 -39,-56 -39,-96l0 -2816c0,-76 63,-138 139,-138l1151 0c50,0 127,20 160,38 -3,10 -6,13 -9,25 -10,33 -12,57 -12,93zm-1550 -28l0 2843c0,121 122,243 243,243l2007 0c133,0 250,-122 250,-267l0 -1973c0,-132 -54,-249 -122,-350 -30,-44 -496,-502 -574,-580 -53,-53 -95,-76 -162,-109 -48,-24 -147,-57 -217,-57l-1175 0c-99,0 -184,65 -226,149 -12,25 -24,64 -24,101z"/>
   <path class="fil0" d="M515 2092c0,-95 138,-210 210,-258 17,-12 31,-20 49,-31 17,-10 35,-17 53,-27 -3,11 -23,38 -30,50 -37,60 -89,135 -134,189 -7,8 -14,12 -21,21 -26,29 -84,74 -116,65 -4,-1 -11,-4 -11,-9zm1206 -482c104,0 251,17 335,75 37,25 33,44 -8,61 -92,39 -215,-39 -284,-99 -11,-9 -35,-27 -43,-37zm-631 -56l110 -236c6,-14 13,-28 18,-41 6,-14 11,-29 18,-42 7,6 20,24 27,32 45,55 115,149 158,196 8,10 24,26 26,36 -44,0 -137,14 -182,22l-175 33zm56 -853c0,-42 8,-104 27,-138 16,-27 19,-22 32,-28 43,65 34,138 34,222 0,37 -4,76 -10,107 -7,34 -17,65 -24,97 -4,-4 -5,-4 -7,-10 -29,-56 -52,-186 -52,-250zm-118 -38c0,118 4,191 45,301 19,50 40,96 68,141 13,21 5,28 -3,50 -41,101 -80,190 -129,287l-71 140c-14,25 -7,22 -38,32 -33,10 -66,26 -99,40 -37,16 -98,51 -134,73l-83 60c-80,63 -191,192 -191,298 0,142 187,224 371,-4l197 -291c11,-19 20,-35 31,-53 15,-26 10,-32 43,-41 43,-11 82,-22 129,-33 103,-23 271,-47 380,-51 12,0 -1,-9 33,25 27,28 52,55 82,80 94,75 190,160 333,160 228,0 337,-254 -9,-355 -114,-33 -238,-34 -383,-34l-312 -384c0,-24 73,-175 73,-361l0 -62c0,-303 -200,-320 -288,-187 -23,36 -45,110 -45,169z"/>
   <path class="fil0" d="M1368 2869l-125 0 0 -375c46,0 98,-2 142,7 44,9 77,36 92,78 19,56 19,163 -8,218 -18,37 -48,72 -101,72zm-240 -382l0 382c0,58 11,93 70,93 134,0 263,19 344,-72 86,-97 88,-310 1,-412 -39,-47 -97,-74 -182,-74l-170 0c-50,0 -63,39 -63,83z"/>
   <path class="fil0" d="M823 2657l-97 0 0 -166c99,0 194,-16 194,86 0,55 -42,80 -97,80zm-211 -191l0 448c0,75 114,84 114,-14l0 -156c103,0 257,18 299,-100 26,-74 12,-149 -43,-201 -57,-53 -212,-39 -304,-39 -42,0 -66,20 -66,62z"/>
   <path class="fil0" d="M1700 2494l0 392c0,125 115,94 115,31l0 -198 191 0c63,0 65,-86 0,-86l-191 0 0 -139c40,0 232,6 255,-8 38,-23 26,-82 -26,-82l-281 0c-11,0 -23,4 -31,7 -10,5 -14,8 -20,18 -10,16 -12,41 -12,65z"/>
  </g>
 </g>
</svg>
