<?xml version="1.0" encoding="UTF-8"?>
<svg xmlns="http://www.w3.org/2000/svg" xmlns:xlink="http://www.w3.org/1999/xlink" width="200pt" height="150pt" viewBox="0 0 200 150" version="1.1">
<g id="surface1">
<path style=" stroke:none;fill-rule:nonzero;fill:rgb(19.215686%,19.215686%,19.215686%);fill-opacity:1;" d="M 137.5 143.800781 C 131.800781 140.5 127.398438 136.800781 124.300781 132.699219 C 121.199219 128.601562 119.199219 124.199219 118.398438 119.601562 C 117.5 115 117.699219 110.101562 119 105.101562 C 119.800781 101.898438 121 98.601562 122.5 95.300781 C 108.398438 96.5 96.5 88.398438 96.5 78 L 96.5 74.300781 C 96.5 66.699219 102.699219 59.601562 110.601562 59.601562 C 118.101562 59.601562 124.699219 62.101562 124.699219 71.199219 C 124.699219 82.800781 107.199219 82.5 109.398438 71.898438 C 109.699219 70.199219 110.601562 69.398438 111.898438 68.601562 C 113.101562 67.800781 115 67.800781 116.800781 68.199219 C 113.699219 64.699219 104.398438 66.398438 104.398438 74.800781 C 104.5 91.300781 138.800781 88.800781 138.800781 64.398438 C 138.699219 33.398438 104.898438 31.898438 78.199219 35.199219 C 67.398438 36.101562 42.101562 36.398438 32.300781 34.300781 C 16.398438 31.101562 7.5 20.800781 2.800781 6.898438 C 2.101562 4.699219 1.5 2.101562 1 0 C 23.398438 15.800781 34.101562 17.898438 61 17.898438 C 82.699219 17.898438 109.800781 16.800781 128.898438 28.398438 C 146.199219 38.898438 151.800781 55.199219 149.898438 68.898438 C 154.199219 67.699219 158.699219 67.398438 163.398438 67.898438 C 168.699219 68.5 174.101562 70.398438 179.699219 73.699219 C 185.300781 76.898438 189.601562 80.601562 192.601562 84.800781 C 195.601562 88.898438 197.5 93.300781 198.300781 97.898438 C 199.101562 102.5 198.898438 107.300781 197.699219 112.199219 C 196.5 117.101562 194.601562 121.898438 191.800781 126.601562 C 188.601562 132.101562 185.101562 136.699219 181.101562 140.398438 C 177.199219 144.101562 172.898438 146.699219 168.300781 148.300781 C 163.699219 149.898438 158.800781 150.300781 153.601562 149.601562 C 148.5 149 143.199219 147 137.5 143.800781 Z M 59.101562 44.300781 C 85.699219 43 119.101562 31.601562 131.601562 56.300781 C 135.5 63.898438 133.800781 74.800781 127.601562 78.5 C 129.601562 73.300781 132.101562 67.601562 126.601562 60.101562 C 108.800781 35.800781 50.601562 77.800781 23 57.199219 C 18.300781 53.699219 10.101562 44.699219 9 37.601562 C 23 45.300781 43.199219 45.101562 59.101562 44.300781 Z M 89.199219 79.800781 C 83.800781 81.199219 69 90.398438 54.699219 87.898438 C 42.898438 85.898438 40.199219 80.398438 35.5 70.800781 C 46.199219 72.199219 56.199219 71.199219 66.601562 68.800781 L 93.601562 61 C 89.199219 65.898438 88.199219 71.199219 89.199219 79.800781 Z M 97.898438 94.699219 C 91.898438 99 80 108.601562 67.601562 102.800781 C 63.5 100.898438 62.199219 98.800781 60 95.300781 C 67.101562 95.101562 75.800781 91.898438 82.101562 88.800781 L 90.601562 84.199219 C 92.101562 88.300781 94.699219 91.898438 97.898438 94.699219 Z M 144.800781 132.398438 C 147.398438 133.898438 150.101562 134.898438 152.800781 135.300781 C 155.5 135.699219 158.101562 135.398438 160.800781 134.398438 C 163.5 133.398438 166.101562 131.601562 168.699219 129.101562 C 171.300781 126.5 173.898438 123.101562 176.398438 118.800781 C 181.101562 110.601562 183 103.800781 182.101562 98.300781 C 181.199219 92.898438 178 88.601562 172.699219 85.5 C 170 83.898438 167.199219 83 164.5 82.601562 C 161.699219 82.199219 158.898438 82.5 156.199219 83.5 C 153.5 84.5 150.800781 86.199219 148.199219 88.601562 C 145.601562 91 143.101562 94.199219 140.699219 98.398438 C 138.300781 102.601562 136.601562 106.5 135.699219 110 C 134.800781 113.5 134.601562 116.699219 135 119.5 C 135.5 122.300781 136.601562 124.800781 138.300781 127 C 139.898438 129 142.101562 130.898438 144.800781 132.398438 Z M 144.800781 132.398438 "/>
</g>
</svg>
